<svg xmlns="http://www.w3.org/2000/svg" fill="none" viewBox="0 0 16 16" id="Chart-Pie-Slice-Duotone--Streamline-Phosphor" height="16" width="16">
  <desc>
    Chart Pie Slice Duotone Streamline Icon: https://streamlinehq.com
  </desc>
  <g id="chart-pie-slice-duotone">
    <path id="Vector" fill="#c4c4c3" d="M5.5892 1.17769375v5.42769375l-4.704 2.71385c-0.31401875 -1.69495 -0.012725 -3.4462625 0.849625 -4.93880625 0.8623625 -1.49255 2.22915625 -2.6282625 3.854375 -3.2027375Z" stroke-width="0.0625"></path>
    <path id="Vector_2" fill="#000000" d="M5.8907375 7.12780625c0.09166875 -0.05291875 0.16780625 -0.1290625 0.2208 -0.22080625 0.052925 -0.0916625 0.0807375 -0.19569375 0.0807375 -0.3016125V1.17769375c-0.000525 -0.09615625 -0.02404375 -0.190775 -0.0686 -0.27599375 -0.04455 -0.0852125 -0.108775 -0.1585375 -0.18748125 -0.2138625 -0.0786 -0.055325 -0.169325 -0.09105 -0.264575 -0.1041875 -0.09525 -0.01314375 -0.1922625 -0.0033125 -0.28294375 0.02865625 -1.76024375 0.6229875 -3.24054375 1.8534375 -4.1747875 3.4701625C0.27965 5.6991875 -0.04726875 7.59616875 0.29191875 9.4323125c0.01758125 0.0949875 0.05770625 0.18431875 0.11700625 0.26053125 0.0592875 0.0762125 0.136025 0.13705 0.22373125 0.17745625 0.07905 0.0369375 0.16528125 0.05600625 0.25254375 0.05578125 0.10584375 0.000075 0.20984375 -0.0277375 0.3015375 -0.0806625l4.704 -2.7176125ZM4.986125 2.09135625v4.16575625l-3.60941875 2.082875c-0.00905 -0.11383125 -0.00905 -0.2284125 -0.00905 -0.33998125 0.001075 -1.2224375 0.33945 -2.4209375 0.9778875 -3.46344375 0.6384375 -1.0425125 1.5521625 -1.8886375 2.64058125 -2.44520625ZM8.00150625 0.16c-0.1599625 0 -0.31336875 0.06354375 -0.42645 0.17663125 -0.113075 0.1131 -0.176625 0.2665 -0.176625 0.42644375v6.921825l-5.9410625 3.46090625c-0.06894375 0.03995625 -0.12928125 0.093175 -0.177525 0.15665 -0.04825625 0.0634 -0.08345 0.13576875 -0.10356875 0.2128875 -0.0201125 0.07704375 -0.02475 0.1574 -0.0136375 0.23633125 0.0111125 0.07885 0.03774375 0.1548375 0.078375 0.2233625 0.6963375 1.18376875 1.6914125 2.16384375 2.88561875 2.84215625 1.19420625 0.67823125 2.54561875 1.03088125 3.91898125 1.0226625 1.37335625 -0.0082125 2.72048125 -0.37706875 3.90643125 -1.06963125 1.186025 -0.69255625 2.16926875 -1.68454375 2.85135 -2.876525 0.68208125 -1.1920625 1.039025 -2.54235 1.03518125 -3.91578125 -0.00384375 -1.3733625 -0.36848125 -2.721625 -1.05719375 -3.90980625 -0.6887875 -1.188175 -1.6776125 -2.17458125 -2.86748125 -2.86045625C10.724025 0.5217875 9.37486875 0.1605125 8.00150625 0.16Zm0 14.47385625c-1.05281875 -0.0027875 -2.0899625 -0.254875 -3.02664375 -0.73545625 -0.93669375 -0.480575 -1.74630625 -1.176075 -2.36260625 -2.02965625l5.69305 -3.316925c0.09159375 -0.05284375 0.16765625 -0.12890625 0.22058125 -0.2205 0.05291875 -0.0915125 0.0808875 -0.19539375 0.0809625 -0.3011625V1.39329375c1.700975 0.154325 3.27689375 0.95876875 4.399675 2.24585625 1.122775 1.2870875 1.705875 2.95764375 1.62785625 4.663825 -0.078025 1.70618125 -0.81106875 3.31655 -2.04661875 4.49586875 -1.23555625 1.1792375 -2.8782625 1.83651875 -4.58625625 1.8350125Z" stroke-width="0.0625"></path>
  </g>
</svg>